<svg xmlns="http://www.w3.org/2000/svg" width="853.67" height="153.78" viewBox="0 0 853.67 153.78"><defs><style>.cls-1{fill:#fff}.cls-2{font-size:14px}.cls-2,.cls-4{font-family:PTSans-Regular,PT Sans}.cls-3{letter-spacing:-.01em}.cls-4{font-size:18px}.cls-5{fill:none;stroke:#000;stroke-miterlimit:10}.cls-6{letter-spacing:.03em}.cls-7{letter-spacing:-.05em}.cls-8{letter-spacing:-.02em}.cls-9{letter-spacing:-.01em}.cls-10{letter-spacing:-.04em}</style></defs><title>Asset 1</title><g id="Layer_2" data-name="Layer 2"><g id="Layer_1-2" data-name="Layer 1"><path d="M62.62 114.69a14.5 14.5 0 1 1 14.5-14.5 14.52 14.52 0 0 1-14.5 14.5z"/><path d="M62.62 86.19a14 14 0 1 1-14 14 14 14 0 0 1 14-14m0-1a15 15 0 1 0 15 15 15 15 0 0 0-15-15z"/><path class="cls-1" d="M741.62 114a14.5 14.5 0 1 1 14.5-14.5 14.52 14.52 0 0 1-14.5 14.5z"/><path d="M741.62 85.49a14 14 0 1 1-14 14 14 14 0 0 1 14-14m0-1a15 15 0 1 0 15 15 15 15 0 0 0-15-15z"/><path d="M741.62 108a8.5 8.5 0 1 1 8.5-8.5 8.51 8.51 0 0 1-8.5 8.5z"/><path d="M741.62 91.49a8 8 0 1 1-8 8 8 8 0 0 1 8-8m0-1a9 9 0 1 0 9 9 9 9 0 0 0-9-9z"/><text class="cls-2" transform="translate(19.63 148.81)">Sender crea<tspan class="cls-3" x="70.47" y="0">t</tspan><tspan x="75.07" y="0">es a channel</tspan></text><rect class="cls-1" x="151.12" y="70.19" width="118" height="60" rx="11.5" ry="11.5"/><path d="M257.62 70.69a11 11 0 0 1 11 11v37a11 11 0 0 1-11 11h-95a11 11 0 0 1-11-11v-37a11 11 0 0 1 11-11h95m0-1h-95a12 12 0 0 0-12 12v37a12 12 0 0 0 12 12h95a12 12 0 0 0 12-12v-37a12 12 0 0 0-12-12z"/><text class="cls-4" transform="translate(190 105.91)">Open</text><rect class="cls-1" x="535.12" y="70.19" width="118" height="60" rx="11.5" ry="11.5"/><path d="M641.62 70.69a11 11 0 0 1 11 11v37a11 11 0 0 1-11 11h-95a11 11 0 0 1-11-11v-37a11 11 0 0 1 11-11h95m0-1h-95a12 12 0 0 0-12 12v37a12 12 0 0 0 12 12h95a12 12 0 0 0 12-12v-37a12 12 0 0 0-12-12z"/><text class="cls-4" transform="translate(567.86 104.91)">Settled</text><rect class="cls-1" x="343.12" y="70.19" width="118" height="60" rx="11.5" ry="11.5"/><path d="M449.62 70.69a11 11 0 0 1 11 11v37a11 11 0 0 1-11 11h-95a11 11 0 0 1-11-11v-37a11 11 0 0 1 11-11h95m0-1h-95a12 12 0 0 0-12 12v37a12 12 0 0 0 12 12h95a12 12 0 0 0 12-12v-37a12 12 0 0 0-12-12z"/><text class="cls-4" transform="translate(373.11 104.91)">Settling</text><path class="cls-5" d="M77.62 100.49h67.03"/><path d="M141.84 104.19l1.58-3.7-1.58-3.7 8.78 3.7-8.78 3.7z"/><path class="cls-5" d="M269.62 99.99h67.03"/><path d="M333.84 103.69l1.58-3.7-1.58-3.7 8.78 3.7-8.78 3.7z"/><path class="cls-5" d="M461.62 99.99h67.03"/><path d="M525.84 103.69l1.58-3.7-1.58-3.7 8.78 3.7-8.78 3.7z"/><path class="cls-5" d="M653.62 99.99h67.03"/><path d="M717.84 103.69l1.58-3.7-1.58-3.7 8.78 3.7-8.78 3.7z"/><text class="cls-2" transform="translate(225.67 149.32)">Sender sta<tspan class="cls-6" x="62.93" y="0">r</tspan><tspan x="68.11" y="0">ts the settling</tspan></text><text class="cls-2" transform="translate(414.67 150.35)"><tspan class="cls-7">R</tspan><tspan class="cls-3" x="7.66" y="0">e</tspan><tspan class="cls-8" x="14.62" y="0">c</tspan><tspan x="20.61" y="0">ei</tspan><tspan class="cls-3" x="31.47" y="0">v</tspan><tspan x="38.07" y="0">er finishes the settling</tspan></text><text class="cls-2" transform="translate(616.67 149.83)">An<tspan class="cls-3" x="15.85" y="0">y</tspan><tspan x="22.22" y="0">one can close the settled channel</tspan></text><path class="cls-5" d="M566.06 65.23c-97.4-88.07-244.11-86.23-330.67 5.2"/><path d="M566.41 60.66l-1.31 3.8-3.65 1.7 9 3.13-4.04-8.63z"/><text class="cls-2" transform="translate(340.67 25.35)">Initia<tspan class="cls-3" x="30.93" y="0">t</tspan><tspan x="35.52" y="0">ed </tspan><tspan class="cls-9" x="53.9" y="0">b</tspan><tspan class="cls-10" x="61.29" y="0">y</tspan><tspan x="67.31" y="0"> </tspan><tspan class="cls-7" x="71.05" y="0">R</tspan><tspan class="cls-3" x="78.71" y="0">e</tspan><tspan class="cls-8" x="85.66" y="0">c</tspan><tspan x="91.66" y="0">ei</tspan><tspan class="cls-3" x="102.52" y="0">v</tspan><tspan x="109.11" y="0">er</tspan></text><text class="cls-4" transform="translate(714.57 74.73)">Closed</text><text class="cls-4" transform="translate(19.46 74.73)">No Channel</text></g></g></svg>